<?xml version="1.0" encoding="UTF-8" standalone="no"?>
<svg xmlns="http://www.w3.org/2000/svg" xmlns:xlink="http://www.w3.org/1999/xlink"
	viewBox="0 289 710 523" width="710px" height="523px">
<title>X-15</title>
<g xml:space="preserve">
<g stroke="#000" stroke-linecap="round" transform="translate(10,10)">
<g fill="none">
<g stroke-width="1.5009"> 
	<path d="m293.56 704.43c7.55-2.72 18.76-4.99 34.53-4.17 0 0 14.25 1.15 28.98 2.24"/>
	<path d="m357.07 702.5c13.46 1 27.33 1.96 31.06 1.96h7.8l240.74 1.8s49.23 0 53.43 6.61v34.82s-7.8 5.4-57.03 4.8c-43.55-0.53-232.76-1.53-275.82-1.76"/>
	<path d="m357.25 750.73c-5.61-0.02-8.75-0.04-8.75-0.04s-58.83 1.2-140.48-22.81l-22.21-0.6-19.81-1.21 19.66-0.14 22.06-0.61s54.34-12.45 72.94-13.65c0 0 10.82-5.85 12.9-7.24"/>
	<path d="m570.04 705.06l24.61-41.42h76.25v43.82"/>
	<path d="m670.29 751.55v29.76l-83.45 0.6-18.01-30.02"/>
</g><g stroke-dasharray="3.0017 2.2513 " stroke-width=".9005">
	<path d="m264.46 769.14c4.22 0 7.64-3.42 7.64-7.64s-3.42-7.64-7.64-7.64c-4.23 0-7.64 3.42-7.64 7.64s3.41 7.64 7.64 7.64z"/>
</g><g stroke-width="1.5009">
	<path d="m592.25 729.68s12.61-5.41 60.63 0l15.61 15.6h-23.41z"/>
	<path d="m571.23 727.28s-70.83-5.41-107.46 3c0 0 11.41 3 31.22 1.8l43.23-0.6z"/>
</g><g stroke-width=".9005">
	<path d="m274.66 712.57v30.61"/>
	<path d="m264.16 713.92v27.17"/>
	<path d="m245.84 717.23v20.25"/>
	<path d="m240.14 718.59v16.79"/>
	<path d="m235.34 720.02v15.06"/>
	<path d="m221.53 723.02v8.16"/>
</g><g stroke-width=".9756">
	<path d="m209.22 725.21v2.97"/>
	<path d="m203.52 725.47v2.11"/>
</g><g stroke-width=".9005">
	<path d="m279.16 711.96l2.71 9.31 54.93-3.3 20.25-2.53"/>
	<path d="m357.05 715.44l25.38-3.17 3.9-8.11"/>
	<path d="m375.22 703.56l-1.8 3-16.38 1.87"/>
	<path d="m357.04 708.43l-20.54 2.34-54.93 1.19"/>
	<path d="m293.12 704.76l23.87-1.5s14.71-0.3 3.9 7.2"/>
	<path d="m288.17 721.27v24.57"/>
	<path d="m337.1 717.97v32.35"/>
	<path d="m357.21 702.66v47.73"/>
	<path d="m365.91 703.26v16.92"/>
	<path d="m365.91 740.04v10.26"/>
	<path d="m372.82 713.73v5.55"/>
	<path d="m372.82 740.6v9.8"/>
	<path d="m391.58 719.47v21.51"/>
<g stroke-dasharray="3.0017 2.2513 ">
	<path d="m650.78 787.61l-0.6 3.9-26.11-2.4s-7.81-3.6 0.59-3.6z"/>
</g></g><g stroke-width="1.0506">
	<path d="m578.14 691.25h92.76"/>
	<path d="m577.54 766h92.75"/>
</g><g stroke-width=".9005">
	<path d="m636.07 691.56v14.7"/>
</g>
<g stroke-width="1.0506">
	<path d="m681.7 709.86v39.63"/>
</g><g stroke-width=".9005">
	<path d="m601.25 691.56v14.7"/>
	<path d="m634.23 752.56v13.85"/>
	<path d="m607.22 752.56v13.85"/>
	<path d="m574.84 752.19l7.76 14.22"/>
	<path d="m594.65 691.56v14.7"/>
</g><g stroke-width="1.2757">
	<path d="m661.29 738.08v-18.61h-254.85s-28.53-1.2-49.38 1.48"/>
	<path d="m357.06 720.95c-12.15 1.56-21.68 4.43-21.46 9.63 0 0-1.19 4.89 21.46 7.99"/>
	<path d="m357.06 738.57c10.55 1.45 26.27 2.52 49.68 2.52h195.11l30.32 0.29"/>
</g></g><g ><g stroke-width="0" fill="#000">
	<path d="m285.32 711.67l9.3-5.26 19.97-1.35 1.35 5.86"/>
</g>
<g stroke-width=".9005" fill="none">
	<path d="m285.32 711.67l9.3-5.26 19.97-1.35 1.35 5.86"/>
</g></g><g stroke-width="0" fill="#000">
	<path d="m240.14 729.23v-4.05h-4.8v4.05h4.8"/>
	<path d="m240.14 736.43v-3.6h-4.8v2.25l4.8 1.35"/>
	<path d="m240.14 717.97v3.6h-4.8v-2.25l4.8-1.35"/>
</g><g fill="none"><g stroke-width=".9005">
	<path d="m389.78 719.32v21.66"/>
	<path d="m408.99 719.47v21.51"/>
	<path d="m428.2 719.47v21.51"/>
	<path d="m447.41 719.47v21.51"/>
	<path d="m465.43 719.47v21.51"/>
	<path d="m483.43 705.06v21.51"/>
	<path d="m483.43 732.53v18.91"/>
	<path d="m395.78 741.46v9.8"/>
	<path d="m405.39 741.46v9.8"/>
	<path d="m543.47 741.46v9.8"/>
	<path d="m543.47 705.66v13.63"/>
	<path d="m570.04 706.11v45.15"/>
	<path d="m602.45 732.98v18.76"/>
	<path d="m602.15 706.26l0.3 20.86"/>
	<path d="m395.78 704.54v14.33"/>
	<path d="m405.39 704.54v14.33"/>
	<path d="m621.66 719.77v7.21"/>
	<path d="m633.52 719.77v8.07"/>
	<path d="m647.03 719.77v8.07"/>
	<path d="m661.14 727.88h-22.37"/>
	<path d="m686.5 732.08h-25.21"/>
	<path d="m686.5 733.58h-25.21"/>
	<path d="m601.1 728.18l44.43 15.6h20.71"/>
	<path d="m631.12 728.03l27.47 15.61"/>
	<path d="m633.52 742.43v9.42"/>
	<path d="m633.37 746.04l-56.13 0.15v5.4-6.9h56.28"/>
</g><g stroke-width="1.5009">
	<path d="m689.2 712.57v34.82"/>
</g>
</g><g stroke-width="0" fill="#000">
	<path d="m688.6 738.98v-11.4h-1.8v11.4h1.8"/>
</g><g fill="none"><g stroke-width="1.5009">
	<path d="m688.6 738.98v-11.4h-1.8v11.4z"/>
	<path d="m165.4 393.8l19.81 1.2 22.21 0.6c81.05 25.21 149.19 20.03 149.19 20.03s30.02-3.3 43.23-3.3h257.55v16.81h-218.53s-57.63 0.6-99.66-13.21"/>
</g><g stroke-width=".9005">
	<path d="m279.16 393.72l2.56 11.26 55.08 5.06 45.63-4.84 3.45-11.18"/>
	<path d="m375.67 394.02l-2.25 5.18-36.92 4.2-24.77-0.07s-15.3-0.76-28.81-9.46l-3.31-0.3"/>
	<path d="m292.82 395.14l14.86 0.68s13.96 5.7 5.55 7.51"/>
</g></g><g stroke-width="0" fill="#000">
	<path d="m283.97 394.17h8.55l14.11 1.8 4.35 7.21s-14.55-1.95-22.51-6.61"/>
</g><g fill="none"><g stroke-width=".9005">
	<path d="m274.66 393.42v17.71"/>
	<path d="m264.16 393.42v15.61"/>
	<path d="m245.84 393.58v11.85"/>
	<path d="m240.14 392.82v11.37"/>
	<path d="m235.34 392.82v10.21"/>
	<path d="m221.53 393.72v6.01"/>
</g><g stroke-width=".9756">
	<path d="m209.22 393.15v2.97"/>
	<path d="m203.52 393.42v2.1"/>
</g><g stroke-width=".9005">
	<path d="m288.32 405.88l-0.15 6.75"/>
	<path d="m337.1 393.12v22.81"/>
	<path d="m357.21 394.32v26.42"/>
	<path d="m365.91 393.46v20.28"/>
	<path d="m372.82 394.02v19.82"/>
	<path d="m391.58 412.93v13.21"/>
</g></g><g stroke-width="0" fill="#000">
	<path d="m240.14 396.87v-4.05h-4.8v4.05h4.8"/>
	<path d="m240.14 404.08v-3.6h-4.8v2.25l4.8 1.35"/>
</g><g fill="none"><g stroke-width=".9005">
	<path d="m389.78 412.78v13.36"/>
	<path d="m408.99 412.33v15.61"/>
	<path d="m428.2 412.33v16.51"/>
	<path d="m447.41 412.33v16.21"/>
	<path d="m465.43 412.33v16.21"/>
	<path d="m478.78 393.12v35.42l42.93 69.94"/>
	<path d="m395.78 393.42v18.88"/>
	<path d="m405.39 393.42v18.88"/>
	<path d="m570.04 394.17v34.97"/>
	<path d="m599.03 395.14v34"/>
	<path d="m395.63 400.93h-5.85v-6.61h5.85"/>
	<path d="m395.93 405.43h8.26v6.45"/>
	<path d="m621.66 412.58v16.26"/>
	<path d="m633.52 412.58v16.26"/>
	<path d="m647.03 412.58v16.26"/>
</g><g stroke-width="1.0506">
	<path d="m681.7 393.82v17.86"/>
</g><g stroke-width="1.5009">
	<path d="m689.2 394.02v15.36"/>
	<path d="m657.69 414.43s18.61 1.2 32.41-5.05v-15.61"/>
	<path d="m667.29 394.02v3.9l-102.66-4.5"/>
	<path d="m590.14 429.14l53.14 43.23h24.31l-17.11-42.93"/>
	<path d="m561.03 429.14l-18.01 69.34h-29.72l-52.23-69.34"/>
</g><g stroke-width=".9005">
	<path d="m515.1 498.18l-47.72-68.74"/>
	<path d="m646.28 471.46l-50.81-42.02"/>
	<path d="m657.98 471.77l-31.14-42.33"/>
	<path d="m536.41 498.18v-67.84h23.72"/>
	<path d="m536.41 474.17h12.31"/>
	<path d="m543.47 393.72v17.98"/>
</g><g stroke-width="1.0506">
	<path d="m657.11 397.62v14.08"/>
</g>
<g stroke-width="1.5009">
	<path d="m687.1 424.24v-1.6h-29.62v1.6z"/>
</g>
<g stroke-width=".9005">
	<path d="m685.3 411.43v10.81"/>
</g>
<g stroke-width="1.5009">
	<path d="m165.4 393.64l19.81-1.2 22.21-0.6c81.05-25.21 149.19-20.03 149.19-20.03s30.02 3.3 43.23 3.3h257.55v-16.81h-218.53s-57.63-0.6-99.66 13.21"/>
</g><g stroke-width=".9005">
	<path d="m279.16 393.72l2.56-11.26 55.08-5.06 45.63 4.84 3.45 11.18"/>
	<path d="m375.67 393.42l-2.25-5.18-36.92-4.2-24.77 0.07s-15.3 0.75-28.81 9.46l-3.31 0.3"/>
	<path d="m292.82 392.3l14.86-0.68s13.96-5.7 5.55-7.51"/>
</g></g><g stroke-width="0" fill="#000">
	<path d="m283.97 393.27h8.55l14.11-1.8 4.35-7.2s-14.55 1.95-22.51 6.6"/>
</g><g fill="none"><g stroke-width=".9005">
	<path d="m274.66 394.02v-17.71"/>
	<path d="m264.16 394.02v-15.61"/>
	<path d="m245.84 393.86v-11.84"/>
	<path d="m240.14 394.62v-11.37"/>
	<path d="m235.34 394.62v-10.21"/>
	<path d="m221.53 393.72v-6"/>
</g><g stroke-width=".9756">
	<path d="m209.22 394.29v-2.97"/>
	<path d="m203.52 394.02v-2.1"/>
</g><g stroke-width=".9005">
	<path d="m288.32 381.56l-0.15-6.75"/>
	<path d="m337.1 394.32v-22.81"/>
	<path d="m357.21 395.82v-29.12"/>
	<path d="m365.91 393.98v-20.28"/>
	<path d="m372.82 393.42v-19.82"/>
	<path d="m391.58 374.51v-13.21"/>
</g></g><g stroke-width="0" fill="#000">
	<path d="m240.14 390.57v4.05h-4.8v-4.05h4.8"/>
	<path d="m240.14 383.36v3.6h-4.8v-2.24l4.8-1.36"/>
</g><g fill="none"><g stroke-width=".9005">
	<path d="m389.78 374.66v-13.36"/>
	<path d="m408.99 375.11v-15.61"/>
	<path d="m428.2 375.11v-16.51"/>
	<path d="m447.41 375.11v-16.21"/>
	<path d="m465.43 375.11v-16.21"/>
	<path d="m478.78 394.32v-35.42l42.93-69.94"/>
	<path d="m395.78 394.02v-18.88"/>
	<path d="m405.39 394.02v-18.88"/>
	<path d="m570.04 393.27v-34.97"/>
	<path d="m599.03 392.3v-34"/>
	<path d="m621.66 374.86v-16.26"/>
	<path d="m633.52 374.86v-16.26"/>
	<path d="m647.03 374.86v-16.26"/>
</g><g stroke-width="1.0506">
	<path d="m681.7 393.62v-17.86"/>
</g><g stroke-width="1.5009">
	<path d="m689.2 393.42v-15.36"/>
	<path d="m657.69 373.01s18.61-1.2 32.41 5.05v15.61"/>
	<path d="m667.29 393.42v-3.9l-102.66 4.5"/>
	<path d="m590.14 358.3l53.14-43.23h24.31l-17.11 42.93"/>
	<path d="m561.03 358.3l-18.01-69.34h-29.72l-52.23 69.34"/>
</g><g stroke-width=".9005">
	<path d="m515.1 289.26l-47.72 68.74"/>
	<path d="m646.28 315.98l-50.81 42.02"/>
	<path d="m657.98 315.68l-31.14 42.32"/>
	<path d="m536.41 289.26v67.84h23.72"/>
	<path d="m536.41 313.27h12.31"/>
	<path d="m543.47 393.72v-17.98"/>
</g><g stroke-width="1.0506">
	<path d="m657.11 389.82v-14.08"/>
</g>
<g stroke-width="1.5009">
	<path d="m687.1 363.2v1.6h-29.62v-1.6z"/>
</g>
<g stroke-width=".9005">
	<path d="m685.3 376.01v-10.81"/>
</g><g stroke-width="1.2031">
	<path d="m140.06 529.47c7.52 0 13.62-6.35 13.62-14.18s-6.1-14.18-13.62-14.18"/>
	<path d="m140.06 527.77c6.89 0 12.48-5.59 12.48-12.48s-5.59-12.48-12.48-12.48"/>
	<path d="m140.06 535.14c10.34 0 18.72-8.89 18.72-19.85 0-10.97-8.38-19.85-18.72-19.85"/>
</g><g stroke-width="1.8047">
	<path d="m140.06 544.78c18.17 0 32.9-13.21 32.9-29.49 0-16.29-4.62-20.36-17.66-26.47"/>
</g>
<g stroke-width="1.2031">
	<path d="m140.06 521.53c3.45 0 6.24-2.8 6.24-6.24 0-3.45-2.79-6.24-6.24-6.24-3.44 0-6.24 2.79-6.24 6.24 0 3.44 2.8 6.24 6.24 6.24z"/>
</g>
</g><g ><g stroke-width="0" fill="#000">
	<path d="m140.06 518.12c1.57 0 2.84-1.26 2.84-2.83s-1.27-2.84-2.84-2.84c-1.56 0-2.83 1.27-2.83 2.84s1.27 2.83 2.83 2.83"/>
</g>
<g stroke-width="1.2031" fill="none">
	<path d="m140.06 518.12c1.57 0 2.84-1.26 2.84-2.83s-1.27-2.84-2.84-2.84c-1.56 0-2.83 1.27-2.83 2.84s1.27 2.83 2.83 2.83z"/>
</g>
<g stroke-width="0" fill="#000">
	<path d="m148.09 478.4l3.2 6.81-2.4 2.41-6.82 2.4v-11.23l6.02-0.39"/>
</g></g><g fill="none"><g stroke-width="1.4036">
	<path d="m181.37 505.66s3.21 6.02 0 12.04"/>
	<path d="m182.57 511.28l96.65 0.4"/>
	<path d="m171.34 496.84s10.03 14.04 3.61 26.87l3.21-2.41s4.01-6.41-1.2-20.05"/>
	<path d="m125.23 487.22s5.41 6.51 15.04 6.51c0 0 5.81-1.3 15.03-4.91l-8.02 8.42"/>
</g><g stroke-width="1.2031">
	<path d="m140.06 542.51c18.85 0.85 26.53-15.89 26.09-27.22-0.57-14.92-1.62-16.04-13.65-23.26"/>
	<path d="m152.54 515.29h6.24"/>
</g><g stroke-width="1.6042">
	<path d="m146.48 473.58l-2.41-48.93h-4.01"/>
</g>
<g stroke-width="1.8047">
	<path d="m140.06 425.46v47.32c14.84 0.4 14.84 14.44 14.84 14.44 12.03 4.41 27.67 18.85 27.67 18.85l96.65 4v1.61l-97.85 6.02-18.85 18.84"/>
</g><g stroke-width="1.6042">
	<path d="m145.28 544.96v38.91h-5.22v-38.46"/>
	<path d="m144.88 528.52v5.22"/>
	<path d="m155.7 541.36l1.21 2 4.81-2.8-0.8-2.01"/>
	<path d="m184.58 518.1l56.95 16.44 0.8-1.61-46.52-16.03"/>
</g><g stroke-dasharray="3.00779 3.00779 " stroke-width="1.2031">
	<path d="m142.22 554.09c0-2.51 1.73-4.54 3.86-4.54s3.86 2.03 3.86 4.54v10.7c0 2.51-1.73 4.54-3.86 4.54s-3.86-2.03-3.86-4.54z"/>
	<path d="m203.28 594.1v-9.63h-7.22v9.63z"/>
	<path d="m142.47 562.21v-17.03"/>
</g><g stroke-width="1.2031">
	<path d="m140.06 529.47c-7.51 0-13.61-6.35-13.61-14.18s6.1-14.18 13.61-14.18"/>
	<path d="m140.06 527.77c-6.89 0-12.47-5.59-12.47-12.48s5.58-12.48 12.47-12.48"/>
	<path d="m140.06 535.14c-10.33 0-18.71-8.89-18.71-19.85 0-10.97 8.38-19.85 18.71-19.85"/>
	<path d="m140.06 521.53c-3.44 0-6.24-2.8-6.24-6.24 0-3.45 2.8-6.24 6.24-6.24 3.45 0 6.24 2.79 6.24 6.24 0 3.44-2.79 6.24-6.24 6.24z"/>
</g></g><g ><g stroke-width="0" fill="#000">
	<path d="m140.06 518.12c-1.56 0-2.83-1.26-2.83-2.83s1.27-2.84 2.83-2.84c1.57 0 2.84 1.27 2.84 2.84s-1.27 2.83-2.84 2.83"/>
</g>
<g stroke-width="1.2031" fill="none">
	<path d="m140.06 518.12c-1.56 0-2.83-1.26-2.83-2.83s1.27-2.84 2.83-2.84c1.57 0 2.84 1.27 2.84 2.84s-1.27 2.83-2.84 2.83z"/>
</g>
<g stroke-width="0" fill="#000">
	<path d="m132.04 478.4l-3.2 6.81 2.4 2.41 6.82 2.4v-11.23l-6.02-0.39"/>
</g></g><g fill="none"><g stroke-width="1.4036">
	<path d="m98.754 505.66s-3.207 6.02 0 12.04"/>
	<path d="m97.551 511.28l-96.649 0.4"/>
	<path d="m108.78 496.84s-10.026 14.04-3.61 26.87l-3.21-2.41s-4.007-6.41 1.21-20.05"/>
	<path d="m132.84 497.24l-8.02-8.42"/>
</g><g stroke-width="1.2031">
	<path d="m140.06 542.51c-18.84 0.85-26.52-15.89-26.09-27.22 0.58-14.92 1.63-16.04 13.66-23.26"/>
	<path d="m127.59 515.29h-6.24"/>
</g><g stroke-width="1.6042">
	<path d="m133.65 473.58l2.41-48.93h4"/>
</g>
<g stroke-width="1.8047">
	<path d="m140.06 425.46v47.32c-14.83 0.4-14.83 14.44-14.83 14.44-12.03 4.41-27.679 18.85-27.679 18.85l-96.649 4 0.00034 1.61 97.852 6.02 18.846 18.84"/>
</g><g stroke-width="1.6042">
	<path d="m134.85 544.96v38.91h5.21v-38.46"/>
	<path d="m135.25 528.52v5.22"/>
	<path d="m124.42 541.36l-1.2 2-4.81-2.8 0.8-2.01"/>
	<path d="m95.547 518.1l-56.945 16.44-0.805-1.61 46.523-16.03"/>
</g><g stroke-dasharray="3.00779 3.00779 " stroke-width="1.2031">
	<path d="m137.9 554.09c0-2.51-1.72-4.54-3.85-4.54s-3.86 2.03-3.86 4.54v10.7c0 2.51 1.73 4.54 3.86 4.54s3.85-2.03 3.85-4.54z"/>
	<path d="m76.844 594.1v-9.63h7.222v9.63z"/>
	<path d="m137.66 562.21v-17.03"/>
</g><g stroke-width="1.8047">
	<path d="m140.06 544.78c-18.16 0-32.89-13.21-32.89-29.49 0-16.29 4.62-20.36 17.65-26.47"/>
</g><g stroke-width="1.5009">
	<path d="m292.16 623.59c7.55-2.72 18.76-4.99 34.53-4.17 0 0 14.25 1.15 28.97 2.24"/>
	<path d="m292.16 623.59c-2.09 1.4-12.89 7.24-12.89 7.24-12.73 0.82-42.17 6.9-59.5 10.67"/>
	<path d="m219.98 650.8c74.63 20.12 127.12 19.05 127.12 19.05s3.13 0.02 8.75 0.05"/>
</g><g stroke-width=".9005">
	<path d="m273.26 631.73v30.62"/>
	<path d="m262.75 633.09v27.16"/>
	<path d="m244.44 636.4v20.24"/>
	<path d="m238.74 637.75v16.79"/>
	<path d="m220.13 642.19v8.15"/>
	<path d="m277.77 631.13l2.69 9.3 54.94-3.3 20.24-2.53"/>
	<path d="m355.64 627.59l-20.54 2.34-54.94 1.2"/>
	<path d="m291.72 623.93l23.87-1.5s14.7-0.31 3.9 7.2"/>
	<path d="m286.77 640.43v24.57"/>
	<path d="m335.7 637.13v32.35"/>
	<path d="m355.81 621.82v47.73"/>
</g><g stroke-width="1.2757">
	<path d="m355.66 640.11c-12.15 1.56-21.68 4.44-21.46 9.63 0 0-1.19 4.89 21.46 8"/>
</g>
</g>
<g stroke-width="0" fill="#000">
	<path d="m283.92 630.83l9.3-5.25 19.96-1.35 1.36 5.85"/>
</g>
<g fill="none">
<g stroke-width=".9005">
	<path d="m283.92 630.83l9.3-5.25 19.96-1.35 1.36 5.85"/>
</g>
<g stroke-width="1.1257">
	<path d="m220.12 642.72c-0.5-0.22-1.05-0.35-1.64-0.35-2.2 0-3.98 1.78-3.98 3.98 0 2.19 1.78 3.98 3.98 3.98 0.54 0 1.06-0.11 1.52-0.31"/>
</g>
</g>
</g>
<g font-family="Arial" font-size="13.5" fill="#000">
	<text transform="translate(242.24 609.66)">Ball nose config.</text>
</g>
</g>
</svg>
